#!OML:ASF F:\VICON\USERDATA\INSTALL\rory3\rory3.ASF
:FULLY-SPECIFIED
:DEGREES
2020
root 0.252292 17.4596 -0.162862 3.69663 2.17148 -1.31285
lowerback -0.508223 -0.20621 -0.619223
upperback -4.09607 -0.256056 0.890745
thorax -3.92145 -0.0886619 1.27163
lowerneck -16.2961 -10.5768 -13.5714
upperneck 30.4232 -15.7998 12.2752
head 15.6528 -6.83931 4.3678
rclavicle -1.17345e-014 -1.0958e-014
rhumerus -40.1103 5.22595 -90.9913
rradius 26.2745
rwrist 10.4497
rhand -2.40757 11.3539
rfingers 7.12502
rthumb 23.2824 -17.2584
lclavicle -1.17345e-014 -1.0958e-014
lhumerus -32.7037 -8.72574 96.7128
lradius 18.582
lwrist -18.0842
lhand -3.72451 24.9212
lfingers 7.12502
lthumb 22.0185 53.6879
rfemur 0 0 0
rtibia 0
rfoot 0 0
rtoes 0
lfemur -4.63773 -18.8533 -17.6404
ltibia 15.2875
lfoot -14.0566 14.6028
ltoes -17.4499
2021
root 0.252698 17.4601 -0.162743 3.69148 2.15395 -1.28018
lowerback -0.509944 -0.203434 -0.646241
upperback -4.1001 -0.253303 0.875719
thorax -3.92471 -0.0866143 1.27122
lowerneck -16.2426 -10.5687 -13.5514
upperneck 30.3826 -15.7901 12.2653
head 15.6158 -6.83735 4.36302
rclavicle -3.14328e-015 -1.56543e-015
rhumerus -40.1389 5.23673 -91.0033
rradius 26.3007
rwrist 10.4544
rhand -2.32271 11.2915
rfingers 7.12502
rthumb 23.3638 -17.3104
lclavicle -3.14328e-015 -1.56543e-015
lhumerus -32.7091 -8.61534 96.6759
lradius 18.5847
lwrist -18.2172
lhand -3.58493 24.9519
lfingers 7.12502
lthumb 22.1525 53.7027
rfemur 0 0 0
rtibia 0
rfoot 0 0
rtoes 0
lfemur -4.60983 -18.8575 -17.6836
ltibia 15.2425
lfoot -14.0067 14.617
ltoes -17.259
2022
root 0.25363 17.4607 -0.162815 3.67733 2.14939 -1.21284
lowerback -0.488161 -0.200039 -0.697148
upperback -4.11077 -0.250566 0.849397
thorax -3.94816 -0.0838147 1.27272
lowerneck -16.2018 -10.5588 -13.5425
upperneck 30.3711 -15.7823 12.2685
head 15.5989 -6.83491 4.36598
rclavicle -4.65902e-017 2.18415e-014
rhumerus -40.1646 5.13177 -90.9633
rradius 26.2661
rwrist 10.5494
rhand -2.32308 11.3923
rfingers 7.12502
rthumb 23.3635 -17.2098
lclavicle -4.65902e-017 2.18415e-014
lhumerus -32.757 -8.76925 96.7873
lradius 18.5923
lwrist -17.9026
lhand -3.70836 25.0994
lfingers 7.12502
lthumb 22.034 53.8643
rfemur 0 0 0
rtibia 0
rfoot 0 0
rtoes 0
lfemur -4.55781 -18.8518 -17.7772
ltibia 15.197
lfoot -13.9081 14.6783
ltoes -17.4696
2023
root 0.253235 17.4604 -0.163907 3.67286 2.14417 -1.13912
lowerback -0.471782 -0.206556 -0.790993
upperback -4.11115 -0.261099 0.847867
thorax -3.9573 -0.0857926 1.32415
lowerneck -16.2065 -10.5528 -13.5415
upperneck 30.3786 -15.7591 12.2294
head 15.5942 -6.82942 4.35421
rclavicle -7.34882e-015 -8.44835e-015
rhumerus -40.1724 5.19736 -90.9581
rradius 26.244
rwrist 10.5081
rhand -2.39448 11.532
rfingers 7.12502
rthumb 23.295 -17.0787
lclavicle -7.34882e-015 -8.44835e-015
lhumerus -32.8388 -9.00999 96.9883
lradius 18.6497
lwrist -17.428
lhand -3.98016 25.0749
lfingers 7.12502
lthumb 21.773 53.8702
rfemur 0 0 0
rtibia 0
rfoot 0 0
rtoes 0
lfemur -4.53684 -18.8601 -17.86
ltibia 15.1634
lfoot -13.9206 14.7153
ltoes -17.237
2024
root 0.252843 17.4602 -0.165176 3.66415 2.12945 -1.13553
lowerback -0.475429 -0.212686 -0.803973
upperback -4.09357 -0.269311 0.855938
thorax -3.93664 -0.089513 1.33988
lowerneck -16.2204 -10.553 -13.5586
upperneck 30.3575 -15.7544 12.2446
head 15.5903 -6.82719 4.36324
rclavicle -2.96624e-015 1.07344e-014
rhumerus -40.1281 5.25078 -90.9704
rradius 26.1748
rwrist 10.4697
rhand -2.48622 11.6485
rfingers 7.12502
rthumb 23.207 -16.9733
lclavicle -2.96624e-015 1.07344e-014
lhumerus -32.8769 -9.18081 97.106
lradius 18.6877
lwrist -17.146
lhand -4.12315 25.052
lfingers 7.12502
lthumb 21.6357 53.8632
rfemur 0 0 0
rtibia 0
rfoot 0 0
rtoes 0
lfemur -4.51471 -18.9127 -17.8627
ltibia 15.1242
lfoot -14.024 14.783
ltoes -16.9029
2025
root 0.252944 17.4605 -0.165216 3.65363 2.14402 -1.13691
lowerback -0.494954 -0.217307 -0.797927
upperback -4.06508 -0.275141 0.862905
thorax -3.89577 -0.0929038 1.34359
lowerneck -16.277 -10.5605 -13.5607
upperneck 30.3532 -15.7581 12.2475
head 15.6026 -6.82581 4.36155
rclavicle 9.92992e-015 1.67973e-014
rhumerus -40.0762 5.24571 -90.9402
rradius 26.1795
rwrist 10.4202
rhand -2.43614 11.6188
rfingers 7.12502
rthumb 23.255 -16.9969
lclavicle 9.92992e-015 1.67973e-014
lhumerus -32.8305 -9.11432 97.1127
lradius 18.6515
lwrist -17.1698
lhand -3.69456 25.291
lfingers 7.12502
lthumb 22.0472 54.0543
rfemur 0 0 0
rtibia 0
rfoot 0 0
rtoes 0
lfemur -4.47175 -18.8936 -17.8658
ltibia 15.0595
lfoot -13.9666 14.882
ltoes -17.9365
2026
root 0.253331 17.4602 -0.165407 3.6495 2.15707 -1.17634
lowerback -0.496426 -0.221883 -0.749864
upperback -4.05893 -0.279828 0.881094
thorax -3.88848 -0.0966123 1.33548
lowerneck -16.3053 -10.5602 -13.5794
upperneck 30.3717 -15.7539 12.2552
head 15.6202 -6.82358 4.36849
rclavicle 2.637e-015 1.34677e-014
rhumerus -40.0443 5.22293 -90.9063
rradius 26.1564
rwrist 10.4177
rhand -2.39447 11.607
rfingers 7.12502
rthumb 23.295 -17.0038
lclavicle 2.637e-015 1.34677e-014
lhumerus -32.8161 -9.0636 97.1504
lradius 18.5912
lwrist -17.1397
lhand -3.07808 25.6889
lfingers 7.12502
lthumb 22.639 54.3812
rfemur 0 0 0
rtibia 0
rfoot 0 0
rtoes 0
lfemur -4.4398 -18.9582 -17.8258
ltibia 15.0271
lfoot -14.018 14.9164
ltoes -17.8423
2027
root 0.253713 17.459 -0.165036 3.64377 2.13634 -1.07269
lowerback -0.494469 -0.222567 -0.847688
upperback -4.05458 -0.283712 0.843776
thorax -3.88479 -0.0959775 1.35196
lowerneck -16.3088 -10.5627 -13.5482
upperneck 30.3886 -15.7658 12.2429
head 15.6263 -6.8262 4.35581
rclavicle -1.11816e-016 -6.4605e-015
rhumerus -40.0208 5.22212 -90.9236
rradius 26.1124
rwrist 10.4185
rhand -2.46044 11.6466
rfingers 7.12502
rthumb 23.2317 -16.9721
lclavicle -1.11816e-016 -6.4605e-015
lhumerus -32.839 -9.05209 97.1632
lradius 18.5647
lwrist -17.0465
lhand -2.893 25.9312
lfingers 7.12502
lthumb 22.8167 54.6017
rfemur 0 0 0
rtibia 0
rfoot 0 0
rtoes 0
lfemur -4.39552 -18.9583 -17.9523
ltibia 14.9884
lfoot -13.9662 14.8448
ltoes -17.5788
